TITLE ""
FILE "2Q_e_011-020.mp3" MP3
  TRACK 01 AUDIO
    TITLE "2Q_e_011-020_01"
    INDEX 01 00:00:00
  TRACK 02 AUDIO
    TITLE "2Q_e_011-020_02"
    INDEX 01 00:01:25
  TRACK 03 AUDIO
    TITLE "2Q_e_011-020_03"
    INDEX 01 00:01:72
  TRACK 04 AUDIO
    TITLE "2Q_e_011-020_04"
    INDEX 01 00:03:69
  TRACK 05 AUDIO
    TITLE "2Q_e_011-020_05"
    INDEX 01 00:04:39
  TRACK 06 AUDIO
    TITLE "2Q_e_011-020_06"
    INDEX 01 00:11:39
  TRACK 07 AUDIO
    TITLE "2Q_e_011-020_07"
    INDEX 01 00:12:15
  TRACK 08 AUDIO
    TITLE "2Q_e_011-020_08"
    INDEX 01 00:13:23
  TRACK 09 AUDIO
    TITLE "2Q_e_011-020_09"
    INDEX 01 00:13:68
  TRACK 10 AUDIO
    TITLE "2Q_e_011-020_10"
    INDEX 01 00:16:37
  TRACK 11 AUDIO
    TITLE "2Q_e_011-020_11"
    INDEX 01 00:17:07
  TRACK 12 AUDIO
    TITLE "2Q_e_011-020_12"
    INDEX 01 00:25:57
  TRACK 13 AUDIO
    TITLE "2Q_e_011-020_13"
    INDEX 01 00:26:39
  TRACK 14 AUDIO
    TITLE "2Q_e_011-020_14"
    INDEX 01 00:27:58
  TRACK 15 AUDIO
    TITLE "2Q_e_011-020_15"
    INDEX 01 00:28:30
  TRACK 16 AUDIO
    TITLE "2Q_e_011-020_16"
    INDEX 01 00:30:17
  TRACK 17 AUDIO
    TITLE "2Q_e_011-020_17"
    INDEX 01 00:30:62
  TRACK 18 AUDIO
    TITLE "2Q_e_011-020_18"
    INDEX 01 00:39:04
  TRACK 19 AUDIO
    TITLE "2Q_e_011-020_19"
    INDEX 01 00:39:51
  TRACK 20 AUDIO
    TITLE "2Q_e_011-020_20"
    INDEX 01 00:41:29
  TRACK 21 AUDIO
    TITLE "2Q_e_011-020_21"
    INDEX 01 00:42:01
  TRACK 22 AUDIO
    TITLE "2Q_e_011-020_22"
    INDEX 01 00:44:06
  TRACK 23 AUDIO
    TITLE "2Q_e_011-020_23"
    INDEX 01 00:44:53
  TRACK 24 AUDIO
    TITLE "2Q_e_011-020_24"
    INDEX 01 00:50:04
  TRACK 25 AUDIO
    TITLE "2Q_e_011-020_25"
    INDEX 01 00:50:51
  TRACK 26 AUDIO
    TITLE "2Q_e_011-020_26"
    INDEX 01 00:52:52
  TRACK 27 AUDIO
    TITLE "2Q_e_011-020_27"
    INDEX 01 00:53:24
  TRACK 28 AUDIO
    TITLE "2Q_e_011-020_28"
    INDEX 01 00:55:07
  TRACK 29 AUDIO
    TITLE "2Q_e_011-020_29"
    INDEX 01 00:55:52
  TRACK 30 AUDIO
    TITLE "2Q_e_011-020_30"
    INDEX 01 01:00:44
  TRACK 31 AUDIO
    TITLE "2Q_e_011-020_31"
    INDEX 01 01:01:14
  TRACK 32 AUDIO
    TITLE "2Q_e_011-020_32"
    INDEX 01 01:02:49
  TRACK 33 AUDIO
    TITLE "2Q_e_011-020_33"
    INDEX 01 01:03:23
  TRACK 34 AUDIO
    TITLE "2Q_e_011-020_34"
    INDEX 01 01:06:35
  TRACK 35 AUDIO
    TITLE "2Q_e_011-020_35"
    INDEX 01 01:07:05
  TRACK 36 AUDIO
    TITLE "2Q_e_011-020_36"
    INDEX 01 01:11:26
  TRACK 37 AUDIO
    TITLE "2Q_e_011-020_37"
    INDEX 01 01:11:71
  TRACK 38 AUDIO
    TITLE "2Q_e_011-020_38"
    INDEX 01 01:13:74
  TRACK 39 AUDIO
    TITLE "2Q_e_011-020_39"
    INDEX 01 01:14:46
  TRACK 40 AUDIO
    TITLE "2Q_e_011-020_40"
    INDEX 01 01:17:36
  TRACK 41 AUDIO
    TITLE "2Q_e_011-020_41"
    INDEX 01 01:18:08
  TRACK 42 AUDIO
    TITLE "2Q_e_011-020_42"
    INDEX 01 01:21:36
  TRACK 43 AUDIO
    TITLE "2Q_e_011-020_43"
    INDEX 01 01:22:08
  TRACK 44 AUDIO
    TITLE "2Q_e_011-020_44"
    INDEX 01 01:24:29
  TRACK 45 AUDIO
    TITLE "2Q_e_011-020_45"
    INDEX 01 01:25:01
  TRACK 46 AUDIO
    TITLE "2Q_e_011-020_46"
    INDEX 01 01:27:66
  TRACK 47 AUDIO
    TITLE "2Q_e_011-020_47"
    INDEX 01 01:28:36
  TRACK 48 AUDIO
    TITLE "2Q_e_011-020_48"
    INDEX 01 01:34:11
  TRACK 49 AUDIO
    TITLE "2Q_e_011-020_49"
    INDEX 01 01:34:56
  TRACK 50 AUDIO
    TITLE "2Q_e_011-020_50"
    INDEX 01 01:36:01
  TRACK 51 AUDIO
    TITLE "2Q_e_011-020_51"
    INDEX 01 01:36:48
  TRACK 52 AUDIO
    TITLE "2Q_e_011-020_52"
    INDEX 01 01:38:27
  TRACK 53 AUDIO
    TITLE "2Q_e_011-020_53"
    INDEX 01 01:39:03
  TRACK 54 AUDIO
    TITLE "2Q_e_011-020_54"
    INDEX 01 01:46:54
  TRACK 55 AUDIO
    TITLE "2Q_e_011-020_55"
    INDEX 01 01:47:24
  TRACK 56 AUDIO
    TITLE "2Q_e_011-020_56"
    INDEX 01 01:48:57
  TRACK 57 AUDIO
    TITLE "2Q_e_011-020_57"
    INDEX 01 01:49:27
  TRACK 58 AUDIO
    TITLE "2Q_e_011-020_58"
    INDEX 01 01:51:18
  TRACK 59 AUDIO
    TITLE "2Q_e_011-020_59"
    INDEX 01 01:51:63
  TRACK 60 AUDIO
    TITLE "2Q_e_011-020_60"
    INDEX 01 01:55:64
